<svg width="12" height="12" viewBox="0 0 12 12" fill="#343740" xmlns="http://www.w3.org/2000/svg">
<path fill-rule="evenodd" clip-rule="evenodd" d="M2.45883 5.02789C2.45883 3.60899 3.60899 2.45883 5.02789 2.45883C6.44679 2.45883 7.59696 3.60899 7.59696 5.02789C7.59696 6.44679 6.44679 7.59696 5.02789 7.59696C3.60899 7.59696 2.45883 6.44679 2.45883 5.02789ZM12 10.2614L9.34458 7.60591C9.79584 6.85204 10.0558 5.97044 10.0558 5.02789C10.0558 2.25105 7.80474 0 5.02789 0C2.25105 0 0 2.25105 0 5.02789C0 7.80474 2.25105 10.0558 5.02789 10.0558C5.97044 10.0558 6.85204 9.79584 7.60599 9.34458L10.2614 12L12 10.2614Z"/>
</svg>
