<svg xmlns="http://www.w3.org/2000/svg" width="13" height="12" viewBox="0 0 13 12">
  <path d="M8.59 1h3.81c.33 0 .6-.22.6-.5 0-.27-.27-.5-.59-.5H8.6c-.33 0-.6.22-.6.5 0 .27.27.5.59.5z" fill="#8c59fc"/>
  <path d="M13 4.41V2.73.67.6c0-.33-.22-.6-.5-.6-.27 0-.5.27-.5.59V4.4c0 .33.22.6.5.6.27 0 .5-.27.5-.59z" fill="#8c59fc"/>
  <path d="M6.1 6.83l.7-.61 1.7-1.48 2-1.75 1.65-1.45.67-.58a.52.52 0 000-.8.72.72 0 00-.92 0l-.7.62-1.7 1.48L7.5 4 5.86 5.46l-.67.58a.52.52 0 000 .8c.26.22.67.21.92 0z" fill="#8c59fc"/>
  <path d="M9.77 6.96v2.78c0 .16.01.33-.01.49l.02-.16a1.4 1.4 0 01-.1.34l.07-.15c-.05.1-.1.2-.17.3l.1-.13c-.08.09-.15.17-.24.24l.12-.1-.3.18.15-.06a1.4 1.4 0 01-.35.1l.16-.03c-.14.02-.3.01-.44.01H2.22l-.45-.01.16.02a1.4 1.4 0 01-.34-.1l.15.07c-.1-.05-.2-.1-.3-.17l.13.1a1.42 1.42 0 01-.24-.24l.1.12a1.4 1.4 0 01-.18-.3l.06.15a1.4 1.4 0 01-.1-.35l.03.16c-.02-.14-.01-.3-.01-.44v-.8V6.5 4v-.79l.01-.45-.02.16c.02-.12.05-.23.1-.34l-.07.15c.05-.1.1-.2.17-.3l-.1.13c.08-.09.15-.17.24-.24l-.12.1.3-.18-.15.06c.11-.05.23-.08.35-.1l-.16.03c.24-.03.48-.01.72-.01H5c.34 0 .62-.28.62-.61a.62.62 0 00-.6-.62H2.04a1.87 1.87 0 00-1.52.61C.18 2 0 2.5 0 3.01v6.98l.03.4a1.86 1.86 0 00.54 1.04A2 2 0 002 12h6.98a2 2 0 00.57-.07 1.87 1.87 0 00.84-.47c.28-.26.5-.63.57-1.01.03-.17.04-.33.04-.5v-.99-2a.62.62 0 00-.6-.6.62.62 0 00-.63.6z" fill="#8c59fc"/>
</svg>
